# xmcd
#
# Track frame offsets:
#	150
#	24096
#	40716
#	57681
#	71449
#	92062
#	108657
#	129332
#	145193
#	154230
#	170526
#	183671
#	197038
#	209746
#	223001
#	235172
#	249217
#	260317
#	281432
#	294410
#
# Disc length: 4098 seconds
#
# Revision: 1
# Processed by: cddbd v1.5.2PL0 Copyright (c) Steve Scherf et al.
# Submitted via: audiograbber 1.83.01
#
DISCID=2a100014
DTITLE=Billy Joel - Cold Spring Harbor
DYEAR=1998
DGENRE=Blues
TTITLE0=She's got a way
TTITLE1=You can make me free
TTITLE2=Everybody loves you now
TTITLE3=Why Judy why
TTITLE4=Halling of the rain
TTITLE5=Turn around
TTITLE6=You look so good to me
TTITLE7=Tomorrow is today
TTITLE8=Nocturne
TTITLE9=Got to begin again
TTITLE10=11 unknown
TTITLE11=12 unknown
TTITLE12=13 unknown
TTITLE13=14 unknown
TTITLE14=15 unknown
TTITLE15=16 unknown
TTITLE16=17 unknown
TTITLE17=18 unknown
TTITLE18=19 unknown
TTITLE19=20 unknown
EXTD=
EXTT0=
EXTT1=
EXTT2=
EXTT3=
EXTT4=
EXTT5=
EXTT6=
EXTT7=
EXTT8=
EXTT9=
EXTT10=
EXTT11=
EXTT12=
EXTT13=
EXTT14=
EXTT15=
EXTT16=
EXTT17=
EXTT18=
EXTT19=
PLAYORDER=
